<svg width="20" height="20" viewBox="0 0 20 20" fill="none" xmlns="http://www.w3.org/2000/svg">
<path d="M4.83333 14.1775L8.51083 14.165L16.5375 6.215C16.8525 5.9 17.0258 5.48166 17.0258 5.03666C17.0258 4.59166 16.8525 4.17333 16.5375 3.85833L15.2158 2.53666C14.5858 1.90666 13.4867 1.91 12.8617 2.53416L4.83333 10.4858V14.1775ZM14.0375 3.715L15.3617 5.03416L14.0308 6.3525L12.7092 5.03166L14.0375 3.715ZM6.49999 11.1808L11.525 6.20333L12.8467 7.525L7.82249 12.5008L6.49999 12.505V11.1808Z" fill="#AA33B5"/>
<path d="M3.16667 17.5H14.8333C15.7525 17.5 16.5 16.7525 16.5 15.8333V8.61L14.8333 10.2767V15.8333H5.79833C5.77667 15.8333 5.75417 15.8417 5.7325 15.8417C5.705 15.8417 5.6775 15.8342 5.64917 15.8333H3.16667V4.16667H8.8725L10.5392 2.5H3.16667C2.2475 2.5 1.5 3.2475 1.5 4.16667V15.8333C1.5 16.7525 2.2475 17.5 3.16667 17.5Z" fill="#AA33B5"/>
</svg>
